<svg id="Layer_1" data-name="Layer 1" xmlns="http://www.w3.org/2000/svg" viewBox="0 0 1798.09 619.87"><defs><style>.cls-1,.cls-2{fill:#fdb515;}.cls-2{fill-rule:evenodd;}.cls-3{fill:none;stroke:#fff;stroke-miterlimit:2.61;stroke-width:0.14px;}.cls-4{fill:#f7941d;}.cls-5{fill:#16285f;}.cls-6{fill:#231f20;}</style></defs><path class="cls-1" d="M631.63,131.66c-76.46,4.32-147.22,10.21-210.46,17.89-80.89,9.81-154.91,23.24-214.23,41.12C121.61,216.39,57.65,254.38,51.77,310,43.92,384.15,145.05,508.63,549,729.82L759,537.55C428.51,423.54,289.23,344,248.61,289.76,214.75,244.58,243.78,212,302.45,189c42-16.45,101.59-29.05,171-38.43,54.95-7.42,118.63-13.19,189.11-17.46,50.61-3,103.17-5.24,156.05-6.76,48.43-1.38,98.94-2.22,150.29-2.62,48.85-.38,100.07-.36,152.74,0,51.8.41,106.7,1.19,164.2,2.37q4.85.12,9.7.21l9.77.22,9.85.22c3.3.07,6.62.14,9.95.23.14-.1.25-.21.35-.29a2.34,2.34,0,0,0,.27-.28,1.64,1.64,0,0,0,.17-.26,1,1,0,0,0,.1-.27l-8.67-.19-8.61-.2-8.53-.18-8.49-.19c-60.4-1.27-118-2.13-172.26-2.6-55.21-.47-108.94-.55-160.33-.22-54.07.35-107.51,1.17-159.06,2.53-56.47,1.49-113.14,3.7-168.4,6.83" transform="translate(-51.36 -122.1)"/><path class="cls-2" d="M866,571m12.53-36.66v-1.69c0-.3,0-.59,0-.9s0-.58,0-.87a1,1,0,0,0,0-.19v-.15c0-.19,0-.36,0-.55s0-.6,0-.9c0-.05,0-.11,0-.17a1.09,1.09,0,0,1,0-.18.91.91,0,0,1,0-.17c0-.06,0-.1,0-.16,0-.28,0-.54-.06-.81s0-.52-.07-.78,0-.53-.07-.78l-.09-.79c0-.07,0-.13,0-.2s0-.09,0-.12c0-.23-.06-.47-.08-.7l-.15-1-.15-1c0-.14,0-.3-.08-.46l0-.17-.06-.37c-.06-.37-.14-.75-.2-1.13s-.15-.75-.23-1.11c0-.16-.07-.34-.11-.5s0-.16-.05-.23,0-.25-.08-.38c-.09-.37-.17-.75-.26-1.11l-.33-1.32a1.55,1.55,0,0,0-.07-.23c0-.09,0-.18-.06-.25l-.23-.83c-.12-.44-.25-.86-.38-1.3-.08-.25-.16-.51-.25-.76,0-.09,0-.19-.08-.28l-.08-.25c-.2-.61-.4-1.21-.61-1.81-.08-.23-.18-.47-.26-.69l-.19-.52-.21-.57c-.23-.6-.47-1.19-.71-1.77,0-.1-.09-.21-.14-.31s-.13-.3-.19-.45c-.14-.34-.28-.66-.42-1s-.33-.7-.49-1-.21-.48-.32-.7-.13-.25-.19-.36c-.3-.63-.61-1.25-.93-1.84-.16-.31-.31-.62-.47-.91,0-.07-.07-.15-.11-.22-.43-.79-.89-1.58-1.35-2.37l-.09-.13c-.46-.79-.94-1.55-1.43-2.31,0-.07-.09-.13-.13-.19l-.59-.86c-.38-.55-.75-1.11-1.14-1.65-.23-.31-.46-.63-.7-.94s-.43-.61-.66-.9l-.47-.59-.75-.93c-.4-.48-.79-1-1.2-1.45l-.76-.86-.36-.42c-.41-.46-.83-.91-1.25-1.36a1.41,1.41,0,0,1-.17-.18l-.27-.26c-.28-.29-.56-.59-.86-.88L856.57,482l-.1-.1s0,0,0,0-.05-.06-.08-.07q-.68-.64-1.35-1.26l-.82-.7-.1-.09-.1-.1c-.34-.29-.69-.59-1-.86s-.7-.57-1.05-.85a.75.75,0,0,0-.14-.12l-.17-.13c-.25-.19-.49-.39-.75-.58l-.9-.68-.68-.49-.1-.08-.13-.08-.92-.65-.93-.63-.5-.32a.41.41,0,0,0-.11-.07l-.22-.15-.85-.52-.85-.53-.63-.36-.08-.05-.15-.08c-.26-.17-.52-.31-.79-.46s-.52-.29-.79-.42-.53-.29-.8-.42l-.13-.08-.07,0c-.2-.1-.4-.22-.6-.3s-.5-.27-.75-.38l-.76-.37-.59-.26-.06,0-.11-.06c-.26-.1-.51-.22-.77-.34s-.49-.2-.74-.32l-.74-.3-.4-.15s0,0-.05,0h0l-.26-.11-.75-.29-.73-.26-.74-.26a2.22,2.22,0,0,1-.3-.11l-.09,0-.34-.11-.74-.24-.72-.22-.72-.22-.3-.08-.08,0-.35-.1-.72-.19L828,466l-.72-.18a2.05,2.05,0,0,1-.34-.07h-.11l-.28-.08-.73-.16-.73-.13c-.24-.06-.49-.1-.73-.14l-.41-.08h-.09l-.24,0c-.24,0-.48-.09-.73-.12l-.74-.11-.75-.09a3.4,3.4,0,0,0-.46-.06l-.1,0h-.18l-.75-.09-.76-.07c-.25,0-.51,0-.76-.06a4,4,0,0,1-.49,0h-.27c-.25,0-.5,0-.76,0s-.53,0-.79,0-.54,0-.81,0h-2.1l-.49,0h-.5c-.16,0-.33,0-.49,0l-.35,0-.33,0h-.34c-.11,0-.23,0-.34,0-.29,0-.58,0-.87.07l-.87.09a.78.78,0,0,0-.22,0h-.12c-.17,0-.35,0-.52.06l-.85.11-1,.14-.84.15H805s0,0,0,0c-.32,0-.64.11-1,.17l-.94.19-1.07.25-.14,0h0l-.06,0-.83.2c-.35.11-.71.19-1.05.3l-1,.3s0,0,0,0h-.06s0,0,0,0L575.37,535.91l-43.53,13.51-.6.18h0l-.06,0h0l.07,0,.62-.18,1-.28.44-.12,1.48-.37.34-.07c.59-.14,1.19-.26,1.79-.38l.34-.06c.61-.11,1.22-.22,1.83-.3a.2.2,0,0,0,.11,0c.61-.09,1.23-.16,1.85-.23a2.06,2.06,0,0,0,.26,0c.63-.06,1.25-.12,1.89-.16a1.23,1.23,0,0,1,.27,0l1.88-.1h.33c.69,0,1.37,0,2.06,0s1.34,0,2,0h0c.63,0,1.26.05,1.88.1l.3,0,1.74.14.3,0,1.75.2.25,0c.59.07,1.18.16,1.76.26a1.36,1.36,0,0,1,.29.06c.58.08,1.15.19,1.72.3l.32.08c.57.11,1.13.23,1.7.36l.32.08,1.71.42a1.37,1.37,0,0,0,.29.07l1.7.48a2.13,2.13,0,0,1,.33.11c.56.16,1.12.33,1.67.51l.34.11c.56.18,1.11.37,1.67.57l.32.12c.56.19,1.12.41,1.68.62l.31.11,1.69.69.3.13c.57.23,1.13.48,1.69.73l.3.13c.55.27,1.11.51,1.67.78l.32.16,1.67.83.21.1c1.28.66,2.56,1.36,3.83,2.09l.1.06q1.9,1.09,3.76,2.29l.13.08c1.24.8,2.48,1.63,3.7,2.5l.18.13c1.2.85,2.39,1.74,3.57,2.64l.19.16q1.77,1.38,3.51,2.85c.06,0,.12.11.18.15,1.13,1,2.25,1.94,3.35,3l.23.21q1.69,1.58,3.36,3.23l.19.19q1.63,1.65,3.23,3.37l.22.24c1,1.08,2,2.16,2.91,3.29l.38.43c.9,1.06,1.78,2.14,2.65,3.22.39.5.78,1,1.16,1.49.59.76,1.19,1.53,1.77,2.32.38.53.77,1,1.16,1.6.56.78,1.12,1.59,1.68,2.39.37.53.73,1.07,1.1,1.61.58.88,1.15,1.75,1.71,2.64.31.49.63,1,.92,1.45q1.25,2,2.42,4.06l.16.29c.78,1.36,1.54,2.75,2.28,4.15.26.5.5,1,.75,1.48.5,1,1,2,1.48,3q.42.85.81,1.71c.51,1.1,1,2.18,1.49,3.27.11.25.21.49.32.73.6,1.41,1.18,2.82,1.74,4.27l.33.85c.56,1.44,1.1,2.92,1.61,4.4.05.14.1.27.15.42q.78,2.29,1.49,4.62l.12.39c.49,1.61.94,3.23,1.37,4.85l.09.35q.63,2.46,1.18,4.91a1.59,1.59,0,0,0,.06.3q.54,2.49,1,5c0,.06,0,.13,0,.22.3,1.74.58,3.48.81,5.23.15,1.11.28,2.22.4,3.3l0,.3c.11,1.08.21,2.14.3,3.21,0,.07,0,.15,0,.22.08,1.05.15,2.09.21,3.13a1.34,1.34,0,0,0,0,.2c.05,1.06.09,2.11.11,3.16v.2c0,1.07,0,2.12,0,3.17v0c0,1,0,2.08-.07,3.1,0,.06,0,.13,0,.21,0,1-.09,2-.15,3,0,.07,0,.13,0,.21-.06,1-.15,2-.24,3a.15.15,0,0,0,0,.07q-.15,1.47-.33,2.91a.7.7,0,0,1,0,.16c-.12.95-.26,1.89-.41,2.82l0,.24c-.15.93-.31,1.85-.49,2.76,0,0,0,0,0,.07-.18.92-.37,1.83-.57,2.72,0,.09,0,.16-.06.23-.2.91-.42,1.8-.65,2.68a.25.25,0,0,0,0,.1c-.23.85-.47,1.69-.72,2.54,0,.09,0,.18-.07.25-.25.82-.5,1.64-.77,2.43l-.06.2c-.29.85-.59,1.67-.89,2.48a1.38,1.38,0,0,1-.06.16c-.3.79-.6,1.57-.93,2.34l-.08.21c-.31.73-.63,1.46-1,2.17l-.14.33c-.33.7-.66,1.4-1,2.09,0,.08-.08.17-.13.26q-.53,1-1.08,2c-.05.11-.11.19-.16.3-.35.62-.71,1.25-1.08,1.87a1.59,1.59,0,0,0-.13.22c-.39.64-.79,1.27-1.19,1.9-.09.11-.16.23-.25.36-.37.57-.75,1.13-1.15,1.68-.06.07-.12.18-.18.26-.44.62-.89,1.2-1.34,1.8l-.39.48c-.33.44-.67.85-1,1.26l-.49.57c-.19.23-.4.47-.6.69-.8.9-1.6,1.78-2.44,2.61l-.09.09c-.82.82-1.67,1.59-2.53,2.35l-.47.41c-.86.73-1.73,1.45-2.63,2.12l-.53.38c-.93.68-1.87,1.35-2.84,2h0L852.71,583.11q1.27-.81,2.52-1.71l.29-.22.86-.67c.43-.32.86-.64,1.28-1l.55-.48c.33-.27.64-.56,1-.84s.55-.45.81-.7.55-.54.83-.8l.91-.88.48-.46,1-1.06c.22-.23.43-.48.65-.73a.38.38,0,0,1,.09-.09l0-.07.18-.19.94-1.11L866,571c.09-.12.17-.23.26-.33l.1-.14.32-.43c.24-.3.46-.6.68-.91s.44-.61.65-.94l.48-.7a.56.56,0,0,1,.05-.08l.11-.16.54-.82.51-.84.51-.84.3-.53a.13.13,0,0,0,.05-.07l.15-.27c.15-.26.29-.52.43-.78s.29-.55.44-.81.27-.54.41-.8l.35-.72h0v0l0-.06.36-.77c.12-.27.24-.52.36-.78a.75.75,0,0,1,.06-.13.25.25,0,0,1,0-.07c.09-.19.18-.4.26-.59s.23-.52.34-.79c0-.11.09-.22.13-.32l.06-.15c0-.08.08-.19.12-.29.1-.25.19-.51.29-.76l.27-.68a.08.08,0,0,1,0-.06v0c.1-.26.19-.51.28-.77s.17-.5.25-.75a2,2,0,0,0,.1-.29.34.34,0,0,0,0-.12c0-.1.08-.21.11-.33s.16-.5.24-.76.16-.5.23-.75v0c.07-.23.14-.48.2-.72s.15-.49.21-.76a3,3,0,0,0,.1-.38,1.27,1.27,0,0,0,0-.14l.06-.22c.07-.26.13-.51.19-.78l.18-.74,0-.13s0-.09,0-.12.08-.34.11-.5.11-.51.17-.76.07-.42.11-.62c0,0,0,0,0-.08v0a.06.06,0,0,0,0,0c.05-.25.1-.5.14-.76s.09-.51.13-.76l.06-.37a.88.88,0,0,0,0-.17,1.85,1.85,0,0,0,0-.23c0-.27.08-.53.12-.78s.06-.53.1-.79c0,0,0-.1,0-.14s0-.09,0-.15,0-.32,0-.48l.09-.79c0-.25,0-.5.07-.75h0v0l.06-.8c0-.28,0-.55.06-.82l0-.41v-.15a2.28,2.28,0,0,0,0-.26c0-.26,0-.54,0-.82l0-.83V535C878.55,534.73,878.55,534.52,878.56,534.32Z" transform="translate(-51.36 -122.1)"/><path class="cls-3" d="M866,571m12.53-36.66v-1.69c0-.3,0-.59,0-.9s0-.58,0-.87a1,1,0,0,0,0-.19v-.15c0-.19,0-.36,0-.55s0-.6,0-.9c0-.05,0-.11,0-.17a1.09,1.09,0,0,1,0-.18.91.91,0,0,1,0-.17c0-.06,0-.1,0-.16,0-.28,0-.54-.06-.81s0-.52-.07-.78,0-.53-.07-.78l-.09-.79c0-.07,0-.13,0-.2s0-.09,0-.12c0-.23-.06-.47-.08-.7l-.15-1-.15-1c0-.14,0-.3-.08-.46l0-.17-.06-.37c-.06-.37-.14-.75-.2-1.13s-.15-.75-.23-1.11c0-.16-.07-.34-.11-.5s0-.16-.05-.23,0-.25-.08-.38c-.09-.37-.17-.75-.26-1.11l-.33-1.32a1.55,1.55,0,0,0-.07-.23c0-.09,0-.18-.06-.25l-.23-.83c-.12-.44-.25-.86-.38-1.3-.08-.25-.16-.51-.25-.76,0-.09,0-.19-.08-.28l-.08-.25c-.2-.61-.4-1.21-.61-1.81-.08-.23-.18-.47-.26-.69l-.19-.52-.21-.57c-.23-.6-.47-1.19-.71-1.77,0-.1-.09-.21-.14-.31s-.13-.3-.19-.45c-.14-.34-.28-.66-.42-1s-.33-.7-.49-1-.21-.48-.32-.7-.13-.25-.19-.36c-.3-.63-.61-1.25-.93-1.84-.16-.31-.31-.62-.47-.91,0-.07-.07-.15-.11-.22-.43-.79-.89-1.58-1.35-2.37l-.09-.13c-.46-.79-.94-1.55-1.43-2.31,0-.07-.09-.13-.13-.19l-.59-.86c-.38-.55-.75-1.11-1.14-1.65-.23-.31-.46-.63-.7-.94s-.43-.61-.66-.9l-.47-.59-.75-.93c-.4-.48-.79-1-1.2-1.45l-.76-.86-.36-.42c-.41-.46-.83-.91-1.25-1.36a1.41,1.41,0,0,1-.17-.18l-.27-.26c-.28-.29-.56-.59-.86-.88L856.57,482l-.1-.1s0,0,0,0-.05-.06-.08-.07q-.68-.64-1.35-1.26l-.82-.7-.1-.09-.1-.1c-.34-.29-.69-.59-1-.86s-.7-.57-1.05-.85a.75.75,0,0,0-.14-.12l-.17-.13c-.25-.19-.49-.39-.75-.58l-.9-.68-.68-.49-.1-.08-.13-.08-.92-.65-.93-.63-.5-.32a.41.41,0,0,0-.11-.07l-.22-.15-.85-.52-.85-.53-.63-.36-.08-.05-.15-.08c-.26-.17-.52-.31-.79-.46s-.52-.29-.79-.42-.53-.29-.8-.42l-.13-.08-.07,0c-.2-.1-.4-.22-.6-.3s-.5-.27-.75-.38l-.76-.37-.59-.26-.06,0-.11-.06c-.26-.1-.51-.22-.77-.34s-.49-.2-.74-.32l-.74-.3-.4-.15s0,0-.05,0h0l-.26-.11-.75-.29-.73-.26-.74-.26a2.22,2.22,0,0,1-.3-.11l-.09,0-.34-.11-.74-.24-.72-.22-.72-.22-.3-.08-.08,0-.35-.1-.72-.19L828,466l-.72-.18a2.05,2.05,0,0,1-.34-.07h-.11l-.28-.08-.73-.16-.73-.13c-.24-.06-.49-.1-.73-.14l-.41-.08h-.09l-.24,0c-.24,0-.48-.09-.73-.12l-.74-.11-.75-.09a3.4,3.4,0,0,0-.46-.06l-.1,0h-.18l-.75-.09-.76-.07c-.25,0-.51,0-.76-.06a4,4,0,0,1-.49,0h-.27c-.25,0-.5,0-.76,0s-.53,0-.79,0-.54,0-.81,0h-2.1l-.49,0h-.5c-.16,0-.33,0-.49,0l-.35,0-.33,0h-.34c-.11,0-.23,0-.34,0-.29,0-.58,0-.87.07l-.87.09a.78.78,0,0,0-.22,0h-.12c-.17,0-.35,0-.52.06l-.85.11-1,.14-.84.15H805s0,0,0,0c-.32,0-.64.11-1,.17l-.94.19-1.07.25-.14,0h0l-.06,0-.83.2c-.35.11-.71.19-1.05.3l-1,.3s0,0,0,0h-.06s0,0,0,0L575.37,535.91l-43.53,13.51-.6.18h0l-.06,0h0l.07,0,.62-.18,1-.28.44-.12,1.48-.37.34-.07c.59-.14,1.19-.26,1.79-.38l.34-.06c.61-.11,1.22-.22,1.83-.3a.2.2,0,0,0,.11,0c.61-.09,1.23-.16,1.85-.23a2.06,2.06,0,0,0,.26,0c.63-.06,1.25-.12,1.89-.16a1.23,1.23,0,0,1,.27,0l1.88-.1h.33c.69,0,1.37,0,2.06,0s1.34,0,2,0h0c.63,0,1.26.05,1.88.1l.3,0,1.74.14.3,0,1.75.2.25,0c.59.07,1.18.16,1.76.26a1.36,1.36,0,0,1,.29.06c.58.08,1.15.19,1.72.3l.32.08c.57.11,1.13.23,1.7.36l.32.08,1.71.42a1.37,1.37,0,0,0,.29.07l1.7.48a2.13,2.13,0,0,1,.33.11c.56.16,1.12.33,1.67.51l.34.11c.56.18,1.11.37,1.67.57l.32.12c.56.19,1.12.41,1.68.62l.31.11,1.69.69.3.13c.57.23,1.13.48,1.69.73l.3.13c.55.27,1.11.51,1.67.78l.32.16,1.67.83.21.1c1.28.66,2.56,1.36,3.83,2.09l.1.06q1.9,1.09,3.76,2.29l.13.08c1.24.8,2.48,1.63,3.7,2.5l.18.13c1.2.85,2.39,1.74,3.57,2.64l.19.16q1.77,1.38,3.51,2.85c.06,0,.12.11.18.15,1.13,1,2.25,1.94,3.35,3l.23.21q1.69,1.58,3.36,3.23l.19.19q1.63,1.65,3.23,3.37l.22.24c1,1.08,2,2.16,2.91,3.29l.38.43c.9,1.06,1.78,2.14,2.65,3.22.39.5.78,1,1.16,1.49.59.76,1.19,1.53,1.77,2.32.38.53.77,1,1.16,1.6.56.78,1.12,1.59,1.68,2.39.37.53.73,1.07,1.1,1.61.58.88,1.15,1.75,1.71,2.64.31.49.63,1,.92,1.45q1.25,2,2.42,4.06l.16.29c.78,1.36,1.54,2.75,2.28,4.15.26.5.5,1,.75,1.48.5,1,1,2,1.48,3q.42.85.81,1.71c.51,1.1,1,2.18,1.49,3.27.11.25.21.49.32.73.6,1.41,1.18,2.82,1.74,4.27l.33.85c.56,1.44,1.1,2.92,1.61,4.4.05.14.1.27.15.42q.78,2.29,1.49,4.62l.12.39c.49,1.61.94,3.23,1.37,4.85l.09.35q.63,2.46,1.18,4.91a1.59,1.59,0,0,0,.06.3q.54,2.49,1,5c0,.06,0,.13,0,.22.3,1.74.58,3.48.81,5.23.15,1.11.28,2.22.4,3.3l0,.3c.11,1.08.21,2.14.3,3.21,0,.07,0,.15,0,.22.08,1.05.15,2.09.21,3.13a1.34,1.34,0,0,0,0,.2c.05,1.06.09,2.11.11,3.16v.2c0,1.07,0,2.12,0,3.17v0c0,1,0,2.08-.07,3.1,0,.06,0,.13,0,.21,0,1-.09,2-.15,3,0,.07,0,.13,0,.21-.06,1-.15,2-.24,3a.15.15,0,0,0,0,.07q-.15,1.47-.33,2.91a.7.7,0,0,1,0,.16c-.12.95-.26,1.89-.41,2.82l0,.24c-.15.93-.31,1.85-.49,2.76,0,0,0,0,0,.07-.18.92-.37,1.83-.57,2.72,0,.09,0,.16-.06.23-.2.91-.42,1.8-.65,2.68a.25.25,0,0,0,0,.1c-.23.85-.47,1.69-.72,2.54,0,.09,0,.18-.07.25-.25.82-.5,1.64-.77,2.43l-.06.2c-.29.85-.59,1.67-.89,2.48a1.38,1.38,0,0,1-.06.16c-.3.79-.6,1.57-.93,2.34l-.08.21c-.31.73-.63,1.46-1,2.17l-.14.33c-.33.7-.66,1.4-1,2.09,0,.08-.08.17-.13.26q-.53,1-1.08,2c-.05.11-.11.19-.16.3-.35.62-.71,1.25-1.08,1.87a1.59,1.59,0,0,0-.13.22c-.39.64-.79,1.27-1.19,1.9-.09.11-.16.23-.25.36-.37.57-.75,1.13-1.15,1.68-.06.07-.12.18-.18.26-.44.62-.89,1.2-1.34,1.8l-.39.48c-.33.44-.67.85-1,1.26l-.49.57c-.19.23-.4.47-.6.69-.8.9-1.6,1.78-2.44,2.61l-.09.09c-.82.82-1.67,1.59-2.53,2.35l-.47.41c-.86.73-1.73,1.45-2.63,2.12l-.53.38c-.93.68-1.87,1.35-2.84,2h0L852.71,583.11q1.27-.81,2.52-1.71l.29-.22.86-.67c.43-.32.86-.64,1.28-1l.55-.48c.33-.27.64-.56,1-.84s.55-.45.81-.7.55-.54.83-.8l.91-.88.48-.46,1-1.06c.22-.23.43-.48.65-.73a.38.38,0,0,1,.09-.09l0-.07.18-.19.94-1.11L866,571c.09-.12.17-.23.26-.33l.1-.14.32-.43c.24-.3.46-.6.68-.91s.44-.61.65-.94l.48-.7a.56.56,0,0,1,.05-.08l.11-.16.54-.82.51-.84.51-.84.3-.53a.13.13,0,0,0,.05-.07l.15-.27c.15-.26.29-.52.43-.78s.29-.55.44-.81.27-.54.41-.8l.35-.72h0v0l0-.06.36-.77c.12-.27.24-.52.36-.78a.75.75,0,0,1,.06-.13.25.25,0,0,1,0-.07c.09-.19.18-.4.26-.59s.23-.52.34-.79c0-.11.09-.22.13-.32l.06-.15c0-.08.08-.19.12-.29.1-.25.19-.51.29-.76l.27-.68a.08.08,0,0,1,0-.06v0c.1-.26.19-.51.28-.77s.17-.5.25-.75a2,2,0,0,0,.1-.29.34.34,0,0,0,0-.12c0-.1.08-.21.11-.33s.16-.5.24-.76.16-.5.23-.75v0c.07-.23.14-.48.2-.72s.15-.49.21-.76a3,3,0,0,0,.1-.38,1.27,1.27,0,0,0,0-.14l.06-.22c.07-.26.13-.51.19-.78l.18-.74,0-.13s0-.09,0-.12.08-.34.11-.5.11-.51.17-.76.07-.42.11-.62c0,0,0,0,0-.08v0a.06.06,0,0,0,0,0c.05-.25.1-.5.14-.76s.09-.51.13-.76l.06-.37a.88.88,0,0,0,0-.17,1.85,1.85,0,0,0,0-.23c0-.27.08-.53.12-.78s.06-.53.1-.79c0,0,0-.1,0-.14s0-.09,0-.15,0-.32,0-.48l.09-.79c0-.25,0-.5.07-.75h0v0l.06-.8c0-.28,0-.55.06-.82l0-.41v-.15a2.28,2.28,0,0,0,0-.26c0-.26,0-.54,0-.82l0-.83V535C878.55,534.73,878.55,534.52,878.56,534.32Z" transform="translate(-51.36 -122.1)"/><path class="cls-4" d="M547.72,547.25c10.81.06,21.72,3,32.18,8.39a108,108,0,0,1,29.64,23,140.22,140.22,0,0,1,35.29,75.12,108.21,108.21,0,0,1-1.43,38.93,72.47,72.47,0,0,1-13.71,29.12,53.29,53.29,0,0,1-22.82,16.73,56.2,56.2,0,0,1-29,2.51A80.23,80.23,0,0,1,548,729.29a114.49,114.49,0,0,1-25.73-22.67,140.72,140.72,0,0,1-31.1-66.3,114.69,114.69,0,0,1-.87-35.57,81.1,81.1,0,0,1,9.79-29.47,57.26,57.26,0,0,1,19.49-20.42A52.69,52.69,0,0,1,547.72,547.25Z" transform="translate(-51.36 -122.1)"/><path class="cls-3" d="M547.72,547.25c10.81.06,21.72,3,32.18,8.39a108,108,0,0,1,29.64,23,140.22,140.22,0,0,1,35.29,75.12,108.21,108.21,0,0,1-1.43,38.93,72.47,72.47,0,0,1-13.71,29.12,53.29,53.29,0,0,1-22.82,16.73,56.2,56.2,0,0,1-29,2.51A80.23,80.23,0,0,1,548,729.29a114.49,114.49,0,0,1-25.73-22.67,140.72,140.72,0,0,1-31.1-66.3,114.69,114.69,0,0,1-.87-35.57,81.1,81.1,0,0,1,9.79-29.47,57.26,57.26,0,0,1,19.49-20.42A52.69,52.69,0,0,1,547.72,547.25Z" transform="translate(-51.36 -122.1)"/><path class="cls-5" d="M1632,376.12h58.34l8.48-31.67L1723.28,320l21,56.1h62.08l-36.4-94.75,79.53-79.78h-71l-58.1,62.58,17-62.58H1678.9Zm-81,3.74a112.6,112.6,0,0,0,33.37-4.78,90.89,90.89,0,0,0,26.43-13.3A98.41,98.41,0,0,0,1631,341.71l-40.39-31.92a52.34,52.34,0,0,1-15.46,13.51,37.48,37.48,0,0,1-18.45,4.69,27.85,27.85,0,0,1-14-3.49,25.08,25.08,0,0,1-9.81-10.13,34.9,34.9,0,0,1-3.65-16.29,51.62,51.62,0,0,1,3.07-17.58,49.14,49.14,0,0,1,8.69-15.34,41.93,41.93,0,0,1,13.59-10.84,39.16,39.16,0,0,1,17.78-4.12,30.66,30.66,0,0,1,12.09,2.33,24.41,24.41,0,0,1,9.31,7.07,31,31,0,0,1,5.78,11.8l52.11-22.69a63.78,63.78,0,0,0-13.38-26.93,64.79,64.79,0,0,0-24.52-17.62q-14.77-6.22-33.66-6.31a127.76,127.76,0,0,0-34.45,4.48,108.73,108.73,0,0,0-28,12.26,104,104,0,0,0-21.73,18.12A108.39,108.39,0,0,0,1471.3,279a101.13,101.13,0,0,0-3.08,24.35,81.38,81.38,0,0,0,6.07,31.75,68.17,68.17,0,0,0,17,24.1,76.08,76.08,0,0,0,26.18,15.33A102.13,102.13,0,0,0,1551,379.86Zm-191-68.57,27.18-42.39,4.74,42.39ZM1255.3,376.12h63.57l15.21-23.44h61.09l3,23.44h62.08l-26.43-175.78H1376ZM1174,284.61l9.22-34.16h20.69a36.53,36.53,0,0,1,10.48,1.29,15.42,15.42,0,0,1,6.73,3.7,12.5,12.5,0,0,1,2.82,4.24,13.32,13.32,0,0,1,.92,5,16.34,16.34,0,0,1-3.37,10.05,22.79,22.79,0,0,1-10,7.15q-6.61,2.69-16.33,2.74Zm-82.78,91.51h58.34L1163,326.25h14.47L1197,376.12h62.83L1235.6,318c11.43-3.61,20.73-8.52,27.88-14.62a56.47,56.47,0,0,0,15.79-21.11,64.87,64.87,0,0,0,5-25.6A58.68,58.68,0,0,0,1281,237a44.93,44.93,0,0,0-10.52-16.7c-5.77-5.9-14-10.48-24.47-13.76s-23.81-4.9-39.85-4.94h-68.07Zm-122.42,0h58.34L1060.82,251h51.36l13.22-49.36H964.33L951.12,251h51.36Zm-115.44,3.49q18.82-.08,33.49-4.82a73.7,73.7,0,0,0,24.81-13.3,56.65,56.65,0,0,0,15.42-19.87,57.37,57.37,0,0,0,5.32-24.6A43.77,43.77,0,0,0,929,299.49a41,41,0,0,0-9.77-13.42,69.83,69.83,0,0,0-15.33-10.43,165.65,165.65,0,0,0-20.11-8.73c-6-2.2-10.85-4-14.59-5.44a78.25,78.25,0,0,1-8.43-3.58,10.61,10.61,0,0,1-3.95-2.86,5.32,5.32,0,0,1-1-3.33,5.73,5.73,0,0,1,3.58-5.36,20.51,20.51,0,0,1,9.14-1.62,66.86,66.86,0,0,1,18.32,2.66,88.53,88.53,0,0,1,17.21,7A92.32,92.32,0,0,1,919,264.17l33.41-39.9a100.74,100.74,0,0,0-21.65-14,118.57,118.57,0,0,0-26.34-9,138.1,138.1,0,0,0-29.8-3.2,104.8,104.8,0,0,0-32.37,4.82A77.06,77.06,0,0,0,817.43,216a59.29,59.29,0,0,0-15.83,19.44A53.23,53.23,0,0,0,796,259.18,45.5,45.5,0,0,0,798.9,276a36.33,36.33,0,0,0,8.81,12.88,64.29,64.29,0,0,0,14.84,10.31,177.41,177.41,0,0,0,21.11,9.1c6.31,2.32,11.38,4.28,15.2,5.82a78.24,78.24,0,0,1,8.69,4,10.55,10.55,0,0,1,3.86,3.28,6.1,6.1,0,0,1,.92,3.57,6.47,6.47,0,0,1-3.53,5.74,18.37,18.37,0,0,1-9.19,2,75.9,75.9,0,0,1-28.84-6.06q-15-6.12-30-18.62l-33.41,39.89a117.8,117.8,0,0,0,24,16.75,126.43,126.43,0,0,0,29,11A137.27,137.27,0,0,0,853.38,379.61ZM665.64,311.29l27.17-42.39,4.74,42.39ZM560.92,376.12H624.5l15.2-23.44h61.09l3,23.44h62.09L739.44,200.34H681.59Zm-133.64,0h58.34L500.83,319h81.53l12.22-45.38H513.05l6-22.19h87.76l13.47-49.86H474.15Z" transform="translate(-51.36 -122.1)"/><path class="cls-1" d="M1747.92,523.67q9.35,0,14.63-3.7t5.29-10.93c0-3.53-1.29-6.14-3.88-7.85s-6.11-2.55-10.57-2.55h-30.85l-4.93,25Zm-15.68-73-4.76,23.79h25q9.35,0,14.19-3.61t4.84-10.49q0-9.69-14.63-9.69ZM1786,485.24a28.51,28.51,0,0,1,12.25,9.79,25.23,25.23,0,0,1,4.31,14.71q0,19.21-15.68,29.17t-40.89,10h-67.86l24.67-123.38h62.4q20.79,0,31.81,7.49t11,21.42a30.32,30.32,0,0,1-5.82,18.59A38.09,38.09,0,0,1,1786,485.24Zm-162.87,13.93-8.28-40-23.62,40Zm5.29,25.73H1575.9l-14.28,24h-36.84l79.14-123.38h34.37l29.79,123.38h-34.72Zm-147.88-72.44-5.46,27.14h54.46l-5.46,27h-54.29l-8.46,42.3h-34.9l24.68-123.38h96.59l-5.47,27ZM1379,505.16l-8.64,43.71h-34.9l8.81-44.59-31.37-78.79H1348l19.38,49.18,39.49-49.18h35.42Zm-157.58-79.67h34.9l-19,95.71h58.87l-5.64,27.67h-93.77Zm-104.17,96.94a36.33,36.33,0,0,0,20.45-5.81,38.51,38.51,0,0,0,13.57-15.6,48.73,48.73,0,0,0,4.76-21.59q0-12.53-7.67-20T1127,451.93a36.26,36.26,0,0,0-20.45,5.82,38.38,38.38,0,0,0-13.57,15.6,48.7,48.7,0,0,0-4.76,21.59q0,12.51,7.67,20T1117.27,522.43Zm-3,28.91q-18.69,0-32.52-6.87a50.6,50.6,0,0,1-21.33-19.22,53.26,53.26,0,0,1-7.49-28.2q0-21.15,9.78-38.07A68.84,68.84,0,0,1,1090,432.54Q1107.58,423,1130,423q18.69,0,32.52,6.88a50.52,50.52,0,0,1,21.33,19.21,53.22,53.22,0,0,1,7.49,28.2q0,21.15-9.78,38.07a68.77,68.77,0,0,1-27.32,26.44Q1136.67,551.34,1114.28,551.34Zm-129-62.22q11.63,0,17.89-5.46t6.25-15.51q0-7.59-5-11.37T990,453H971.68l-7.22,36.13Zm9.34-63.63q24,0,37,10.4t13.05,29.26q0,15.51-7.5,27.14t-21.32,18q-13.85,6.35-32.17,6.35H959l-6.34,32.25h-34.9l24.68-123.38Z" transform="translate(-51.36 -122.1)"/><path class="cls-6" d="M1787.48,611.37h-15.25l.81-4h35l-.86,4H1792l-7.84,39.25h-4.5ZM1745.89,651a27,27,0,0,1-9.11-1.55,16,16,0,0,1-6.57-3.94l2.22-3.58a15.21,15.21,0,0,0,6,3.76,22.43,22.43,0,0,0,7.9,1.42,16.78,16.78,0,0,0,9.22-2.25,7.07,7.07,0,0,0,3.49-6.27,4.84,4.84,0,0,0-1.3-3.51,9.39,9.39,0,0,0-3.27-2.19,47.38,47.38,0,0,0-5.37-1.82,59.84,59.84,0,0,1-6.51-2.26,11.31,11.31,0,0,1-4.25-3.2,8.37,8.37,0,0,1-1.76-5.53,11.27,11.27,0,0,1,2.19-6.94,13.81,13.81,0,0,1,6.11-4.5,23.9,23.9,0,0,1,9-1.58,28,28,0,0,1,7.4,1,18.39,18.39,0,0,1,6,2.74l-1.92,3.71a17.24,17.24,0,0,0-5.37-2.63,22.45,22.45,0,0,0-6.35-.89,16,16,0,0,0-9.13,2.34,7.32,7.32,0,0,0-3.46,6.36,5,5,0,0,0,1.36,3.64,9.55,9.55,0,0,0,3.36,2.25,51.21,51.21,0,0,0,5.4,1.82,57.56,57.56,0,0,1,6.48,2.26,11.6,11.6,0,0,1,4.2,3.08,7.82,7.82,0,0,1,1.72,5.28,11.16,11.16,0,0,1-2.25,7,14,14,0,0,1-6.23,4.47A25.19,25.19,0,0,1,1745.89,651Zm-43,0q-7.41,0-11.51-3.71t-4.1-10.3a22.61,22.61,0,0,1,.49-4.81l4.94-24.75h4.5L1692.26,632a24,24,0,0,0-.49,4.38q0,5.19,3,7.84c2,1.77,4.81,2.65,8.52,2.65q6.35,0,10.15-3.61t5.34-11.26l4.93-24.62h4.44l-4.93,24.93Q1719.42,651,1702.88,651Zm-43.38-18q7.39,0,11.38-3.27t4-9.63a7.64,7.64,0,0,0-2.9-6.48q-2.89-2.22-8.27-2.22h-11.47l-4.39,21.6Zm19.93-13.33a16.44,16.44,0,0,1-3.49,10.83,17.35,17.35,0,0,1-9.78,5.71l8.15,14.44h-4.94l-7.77-13.76c-.46,0-1.2.06-2.23.06H1647.1l-2.72,13.7h-4.57l8.64-43.2H1664q7.35,0,11.39,3.21A10.86,10.86,0,0,1,1679.43,619.64Zm-58.81-8.27h-15.24l.8-4h35l-.86,4h-15.18l-7.84,39.25h-4.5Zm-48.39-4-8.64,43.2h-3.7l-20.68-35.79-7.15,35.79h-4.51l8.64-43.2h3.7l20.68,35.79,7.15-35.79Zm-60.16,28-5.87-23.32-15,23.32Zm.86,3.71H1488.8l-7.46,11.54h-4.94l28.38-43.2h4.51l11.1,43.2h-4.56ZM1459.24,651a24.23,24.23,0,0,1-10.86-2.26,16.1,16.1,0,0,1-6.94-6.29,18.25,18.25,0,0,1-2.37-9.41,26.81,26.81,0,0,1,3.24-13.08,24.09,24.09,0,0,1,9.22-9.41,27,27,0,0,1,13.82-3.49,24.23,24.23,0,0,1,9.2,1.64,13.69,13.69,0,0,1,6.17,4.66l-3.21,2.83q-4.14-5.05-12.53-5a21.33,21.33,0,0,0-11.23,2.93,20.07,20.07,0,0,0-7.52,7.86,22.56,22.56,0,0,0-2.66,10.86,13.31,13.31,0,0,0,4.17,10.31q4.15,3.82,11.87,3.82,8.46,0,13.7-5.12l2.66,3a18.84,18.84,0,0,1-7.22,4.56A27.44,27.44,0,0,1,1459.24,651Zm-77.39,0q-7.41,0-11.51-3.71t-4.1-10.3a22.61,22.61,0,0,1,.49-4.81l4.94-24.75h4.5L1371.23,632a24,24,0,0,0-.49,4.38q0,5.19,3,7.84c2,1.77,4.81,2.65,8.52,2.65q6.35,0,10.15-3.61t5.34-11.26l4.93-24.62h4.44l-4.93,24.93Q1398.39,651,1381.85,651Zm-49.68-4.08a20.76,20.76,0,0,0,11-2.93,19.93,19.93,0,0,0,7.43-7.89,23,23,0,0,0,2.63-10.9,13.28,13.28,0,0,0-4.14-10.24q-4.12-3.83-11.78-3.82a20.76,20.76,0,0,0-11,2.93,19.93,19.93,0,0,0-7.43,7.89,22.87,22.87,0,0,0-2.63,10.83,13.36,13.36,0,0,0,4.14,10.31Q1324.52,646.92,1332.17,646.91Zm-.43,4.08a23.85,23.85,0,0,1-10.8-2.26,16,16,0,0,1-6.85-6.29,18.43,18.43,0,0,1-2.34-9.41,27.06,27.06,0,0,1,3.21-13,23.94,23.94,0,0,1,9.13-9.44,26.56,26.56,0,0,1,13.7-3.49,24,24,0,0,1,10.8,2.25,16.19,16.19,0,0,1,6.88,6.3,18.25,18.25,0,0,1,2.37,9.41,26.86,26.86,0,0,1-3.24,13,24.15,24.15,0,0,1-9.16,9.44A26.53,26.53,0,0,1,1331.74,651Zm-41.65-14.94-2.9,14.57h-4.5l3-14.87-11.6-28.33h4.56l10,24.31,19.62-24.31h4.88Zm-49.81-28.63-8.64,43.2h-4.51l3.95-19.87h-27l-4,19.87h-4.51l8.64-43.2h4.5l-3.82,19.19h27l3.82-19.19Zm-63.87,4h-15.24l.8-4h35l-.86,4h-15.18l-7.84,39.25h-4.51Zm-37.64-.24a21.91,21.91,0,0,0-11.35,2.9,20,20,0,0,0-7.62,7.83,22.48,22.48,0,0,0-2.69,10.92,13.31,13.31,0,0,0,4.17,10.31c2.77,2.55,6.78,3.82,12,3.82a18.68,18.68,0,0,0,11-3.39l2.9-14.5h4.39l-3.34,16.6a22.48,22.48,0,0,1-7.06,4,25.41,25.41,0,0,1-8.42,1.42,24.43,24.43,0,0,1-10.8-2.22,16,16,0,0,1-7-6.3,18.23,18.23,0,0,1-2.4-9.44,26.81,26.81,0,0,1,3.24-13.08,24.09,24.09,0,0,1,9.22-9.41,27.13,27.13,0,0,1,13.89-3.49,25.64,25.64,0,0,1,9.53,1.64,15.3,15.3,0,0,1,6.51,4.66l-3.21,2.77a13.12,13.12,0,0,0-5.43-3.79A21.67,21.67,0,0,0,1138.77,611.13ZM1107,607.42l-8.64,43.2h-3.7L1074,614.83l-7.16,35.79h-4.5l8.64-43.2h3.7l20.67,35.79,7.16-35.79Zm-73.61,4-3.09,15.37h22.4l-.74,3.88h-22.4l-3.21,16h26l-.8,4H1021l8.64-43.2h29.62l-.81,4ZM996.11,633q7.39,0,11.38-3.27t4-9.63a7.64,7.64,0,0,0-2.9-6.48q-2.9-2.22-8.27-2.22H988.83L984.45,633ZM1016,619.64a16.44,16.44,0,0,1-3.49,10.83,17.35,17.35,0,0,1-9.78,5.71l8.15,14.44H1006l-7.77-13.76c-.46,0-1.2.06-2.23.06H983.71L981,650.62h-4.57l8.64-43.2h15.55q7.35,0,11.39,3.21A10.86,10.86,0,0,1,1016,619.64Zm-58.81-8.27H942l.81-4h35l-.86,4H961.74l-7.84,39.25h-4.5ZM915.64,651a27,27,0,0,1-9.1-1.55A16,16,0,0,1,900,645.5l2.22-3.58a15.21,15.21,0,0,0,6,3.76,22.43,22.43,0,0,0,7.9,1.42,16.78,16.78,0,0,0,9.22-2.25,7.07,7.07,0,0,0,3.49-6.27,4.84,4.84,0,0,0-1.3-3.51,9.39,9.39,0,0,0-3.27-2.19,48.08,48.08,0,0,0-5.37-1.82,59.84,59.84,0,0,1-6.51-2.26,11.31,11.31,0,0,1-4.25-3.2,8.37,8.37,0,0,1-1.76-5.53,11.27,11.27,0,0,1,2.19-6.94,13.76,13.76,0,0,1,6.11-4.5,23.89,23.89,0,0,1,9-1.58,28,28,0,0,1,7.41,1,18.33,18.33,0,0,1,6,2.74l-1.91,3.71a17.24,17.24,0,0,0-5.37-2.63,22.45,22.45,0,0,0-6.35-.89,16,16,0,0,0-9.13,2.34,7.32,7.32,0,0,0-3.46,6.36,5,5,0,0,0,1.36,3.64,9.55,9.55,0,0,0,3.36,2.25,51.21,51.21,0,0,0,5.4,1.82,57.56,57.56,0,0,1,6.48,2.26,11.56,11.56,0,0,1,4.19,3.08,7.78,7.78,0,0,1,1.73,5.28,11.16,11.16,0,0,1-2.25,7,14,14,0,0,1-6.23,4.47A25.25,25.25,0,0,1,915.64,651Z" transform="translate(-51.36 -122.1)"/></svg>